<mxfile host="app.diagrams.net" modified="2024-05-06T17:49:12.761Z" agent="Mozilla/5.0 (Windows NT 10.0; Win64; x64) AppleWebKit/537.36 (KHTML, like Gecko) Chrome/124.0.0.0 Safari/537.36 Edg/124.0.0.0" etag="sH8PFLwG_b1haiHh1khg" version="24.3.1" type="github">
  <diagram name="Página-1" id="TxEOUDIygW6E6y369LH9">
    <mxGraphModel dx="2381" dy="823" grid="1" gridSize="10" guides="1" tooltips="1" connect="1" arrows="1" fold="1" page="1" pageScale="1" pageWidth="827" pageHeight="1169" math="0" shadow="0">
      <root>
        <mxCell id="0" />
        <mxCell id="1" parent="0" />
        <mxCell id="z4uphPHXU8BL8tabPtiP-35" value="" style="rounded=0;whiteSpace=wrap;html=1;rotation=90;fillColor=none;" vertex="1" parent="1">
          <mxGeometry x="-1081.25" y="396.25" width="1042.5" height="390" as="geometry" />
        </mxCell>
        <mxCell id="z4uphPHXU8BL8tabPtiP-1" value="" style="whiteSpace=wrap;html=1;aspect=fixed;fillColor=none;" vertex="1" parent="1">
          <mxGeometry x="-15" y="80" width="460" height="460" as="geometry" />
        </mxCell>
        <mxCell id="z4uphPHXU8BL8tabPtiP-21" value="" style="shape=or;whiteSpace=wrap;html=1;dashed=1;dashPattern=12 12;" vertex="1" parent="1">
          <mxGeometry x="110" y="240" width="210" height="270" as="geometry" />
        </mxCell>
        <mxCell id="z4uphPHXU8BL8tabPtiP-2" value="Graph - Branch" style="text;html=1;align=center;verticalAlign=middle;whiteSpace=wrap;rounded=0;" vertex="1" parent="1">
          <mxGeometry x="217.5" y="90" width="95" height="30" as="geometry" />
        </mxCell>
        <mxCell id="z4uphPHXU8BL8tabPtiP-3" value="IsResource = False" style="text;html=1;align=center;verticalAlign=middle;whiteSpace=wrap;rounded=0;" vertex="1" parent="1">
          <mxGeometry x="192.5" y="106" width="145" height="30" as="geometry" />
        </mxCell>
        <mxCell id="z4uphPHXU8BL8tabPtiP-4" value="Adresse&lt;div&gt;IsTopNode = True&lt;/div&gt;" style="ellipse;whiteSpace=wrap;html=1;aspect=fixed;" vertex="1" parent="1">
          <mxGeometry x="50" y="120" width="100" height="100" as="geometry" />
        </mxCell>
        <mxCell id="z4uphPHXU8BL8tabPtiP-20" style="edgeStyle=orthogonalEdgeStyle;rounded=0;orthogonalLoop=1;jettySize=auto;html=1;exitX=0;exitY=0.5;exitDx=0;exitDy=0;endArrow=none;endFill=0;" edge="1" parent="1" source="z4uphPHXU8BL8tabPtiP-5">
          <mxGeometry relative="1" as="geometry">
            <mxPoint x="100" y="300" as="targetPoint" />
          </mxGeometry>
        </mxCell>
        <mxCell id="z4uphPHXU8BL8tabPtiP-5" value="Rue" style="ellipse;whiteSpace=wrap;html=1;aspect=fixed;" vertex="1" parent="1">
          <mxGeometry x="120" y="270" width="60" height="60" as="geometry" />
        </mxCell>
        <mxCell id="z4uphPHXU8BL8tabPtiP-19" style="edgeStyle=orthogonalEdgeStyle;rounded=0;orthogonalLoop=1;jettySize=auto;html=1;exitX=0;exitY=0.5;exitDx=0;exitDy=0;endArrow=none;endFill=0;" edge="1" parent="1" source="z4uphPHXU8BL8tabPtiP-6">
          <mxGeometry relative="1" as="geometry">
            <mxPoint x="100" y="380" as="targetPoint" />
          </mxGeometry>
        </mxCell>
        <mxCell id="z4uphPHXU8BL8tabPtiP-6" value="Numéro" style="ellipse;whiteSpace=wrap;html=1;aspect=fixed;" vertex="1" parent="1">
          <mxGeometry x="120" y="350" width="60" height="60" as="geometry" />
        </mxCell>
        <mxCell id="z4uphPHXU8BL8tabPtiP-8" value="Ville" style="ellipse;whiteSpace=wrap;html=1;aspect=fixed;" vertex="1" parent="1">
          <mxGeometry x="120" y="430" width="60" height="60" as="geometry" />
        </mxCell>
        <mxCell id="z4uphPHXU8BL8tabPtiP-16" value="" style="endArrow=none;html=1;rounded=0;endFill=0;exitX=0.5;exitY=1;exitDx=0;exitDy=0;entryX=0;entryY=0.5;entryDx=0;entryDy=0;edgeStyle=orthogonalEdgeStyle;" edge="1" parent="1" source="z4uphPHXU8BL8tabPtiP-4" target="z4uphPHXU8BL8tabPtiP-8">
          <mxGeometry relative="1" as="geometry">
            <mxPoint x="330" y="400" as="sourcePoint" />
            <mxPoint x="490" y="400" as="targetPoint" />
          </mxGeometry>
        </mxCell>
        <mxCell id="z4uphPHXU8BL8tabPtiP-22" value="NodeGroup" style="text;html=1;align=center;verticalAlign=middle;whiteSpace=wrap;rounded=0;" vertex="1" parent="1">
          <mxGeometry x="252.5" y="360" width="60" height="30" as="geometry" />
        </mxCell>
        <mxCell id="z4uphPHXU8BL8tabPtiP-24" value="" style="shape=or;whiteSpace=wrap;html=1;dashed=1;dashPattern=12 12;" vertex="1" parent="1">
          <mxGeometry x="-675" y="240" width="210" height="270" as="geometry" />
        </mxCell>
        <mxCell id="z4uphPHXU8BL8tabPtiP-25" value="Graph - Resource" style="text;html=1;align=center;verticalAlign=middle;whiteSpace=wrap;rounded=0;" vertex="1" parent="1">
          <mxGeometry x="-567.5" y="90" width="97.5" height="30" as="geometry" />
        </mxCell>
        <mxCell id="z4uphPHXU8BL8tabPtiP-26" value="IsResource = True" style="text;html=1;align=center;verticalAlign=middle;whiteSpace=wrap;rounded=0;" vertex="1" parent="1">
          <mxGeometry x="-592.5" y="106" width="145" height="30" as="geometry" />
        </mxCell>
        <mxCell id="z4uphPHXU8BL8tabPtiP-27" value="Personne&lt;div&gt;IsTopNode = True&lt;/div&gt;" style="ellipse;whiteSpace=wrap;html=1;aspect=fixed;" vertex="1" parent="1">
          <mxGeometry x="-735" y="120" width="100" height="100" as="geometry" />
        </mxCell>
        <mxCell id="z4uphPHXU8BL8tabPtiP-28" style="edgeStyle=orthogonalEdgeStyle;rounded=0;orthogonalLoop=1;jettySize=auto;html=1;exitX=0;exitY=0.5;exitDx=0;exitDy=0;endArrow=none;endFill=0;" edge="1" parent="1" source="z4uphPHXU8BL8tabPtiP-29">
          <mxGeometry relative="1" as="geometry">
            <mxPoint x="-685" y="300" as="targetPoint" />
          </mxGeometry>
        </mxCell>
        <mxCell id="z4uphPHXU8BL8tabPtiP-29" value="Nom" style="ellipse;whiteSpace=wrap;html=1;aspect=fixed;" vertex="1" parent="1">
          <mxGeometry x="-665" y="270" width="60" height="60" as="geometry" />
        </mxCell>
        <mxCell id="z4uphPHXU8BL8tabPtiP-30" style="edgeStyle=orthogonalEdgeStyle;rounded=0;orthogonalLoop=1;jettySize=auto;html=1;exitX=0;exitY=0.5;exitDx=0;exitDy=0;endArrow=none;endFill=0;" edge="1" parent="1" source="z4uphPHXU8BL8tabPtiP-31">
          <mxGeometry relative="1" as="geometry">
            <mxPoint x="-685" y="380" as="targetPoint" />
          </mxGeometry>
        </mxCell>
        <mxCell id="z4uphPHXU8BL8tabPtiP-31" value="Prénom" style="ellipse;whiteSpace=wrap;html=1;aspect=fixed;" vertex="1" parent="1">
          <mxGeometry x="-665" y="350" width="60" height="60" as="geometry" />
        </mxCell>
        <mxCell id="z4uphPHXU8BL8tabPtiP-32" value="Salutation" style="ellipse;whiteSpace=wrap;html=1;aspect=fixed;" vertex="1" parent="1">
          <mxGeometry x="-665" y="430" width="60" height="60" as="geometry" />
        </mxCell>
        <mxCell id="z4uphPHXU8BL8tabPtiP-33" value="" style="endArrow=none;html=1;rounded=0;endFill=0;exitX=0.5;exitY=1;exitDx=0;exitDy=0;entryX=0;entryY=0.5;entryDx=0;entryDy=0;edgeStyle=orthogonalEdgeStyle;" edge="1" parent="1" source="z4uphPHXU8BL8tabPtiP-27" target="z4uphPHXU8BL8tabPtiP-32">
          <mxGeometry relative="1" as="geometry">
            <mxPoint x="-455" y="400" as="sourcePoint" />
            <mxPoint x="-295" y="400" as="targetPoint" />
          </mxGeometry>
        </mxCell>
        <mxCell id="z4uphPHXU8BL8tabPtiP-34" value="NodeGroup" style="text;html=1;align=center;verticalAlign=middle;whiteSpace=wrap;rounded=0;" vertex="1" parent="1">
          <mxGeometry x="-532.5" y="360" width="60" height="30" as="geometry" />
        </mxCell>
        <mxCell id="z4uphPHXU8BL8tabPtiP-55" style="edgeStyle=orthogonalEdgeStyle;rounded=0;orthogonalLoop=1;jettySize=auto;html=1;exitX=1;exitY=0.5;exitDx=0;exitDy=0;exitPerimeter=0;entryX=0;entryY=0.5;entryDx=0;entryDy=0;" edge="1" parent="1" source="z4uphPHXU8BL8tabPtiP-36" target="z4uphPHXU8BL8tabPtiP-1">
          <mxGeometry relative="1" as="geometry" />
        </mxCell>
        <mxCell id="z4uphPHXU8BL8tabPtiP-36" value="" style="shape=or;whiteSpace=wrap;html=1;dashed=1;dashPattern=12 12;" vertex="1" parent="1">
          <mxGeometry x="-670" y="570" width="290" height="420" as="geometry" />
        </mxCell>
        <mxCell id="z4uphPHXU8BL8tabPtiP-44" value="Adresse&lt;div&gt;IsTopNode = True&lt;/div&gt;" style="ellipse;whiteSpace=wrap;html=1;aspect=fixed;" vertex="1" parent="1">
          <mxGeometry x="-652" y="630" width="65" height="65" as="geometry" />
        </mxCell>
        <mxCell id="z4uphPHXU8BL8tabPtiP-45" style="edgeStyle=orthogonalEdgeStyle;rounded=0;orthogonalLoop=1;jettySize=auto;html=1;exitX=0;exitY=0.5;exitDx=0;exitDy=0;endArrow=none;endFill=0;" edge="1" parent="1" source="z4uphPHXU8BL8tabPtiP-46">
          <mxGeometry relative="1" as="geometry">
            <mxPoint x="-620" y="765" as="targetPoint" />
          </mxGeometry>
        </mxCell>
        <mxCell id="z4uphPHXU8BL8tabPtiP-46" value="Rue" style="ellipse;whiteSpace=wrap;html=1;aspect=fixed;" vertex="1" parent="1">
          <mxGeometry x="-600" y="735" width="60" height="60" as="geometry" />
        </mxCell>
        <mxCell id="z4uphPHXU8BL8tabPtiP-47" style="edgeStyle=orthogonalEdgeStyle;rounded=0;orthogonalLoop=1;jettySize=auto;html=1;exitX=0;exitY=0.5;exitDx=0;exitDy=0;endArrow=none;endFill=0;" edge="1" parent="1" source="z4uphPHXU8BL8tabPtiP-48">
          <mxGeometry relative="1" as="geometry">
            <mxPoint x="-620" y="845" as="targetPoint" />
          </mxGeometry>
        </mxCell>
        <mxCell id="z4uphPHXU8BL8tabPtiP-48" value="Numéro" style="ellipse;whiteSpace=wrap;html=1;aspect=fixed;" vertex="1" parent="1">
          <mxGeometry x="-600" y="815" width="60" height="60" as="geometry" />
        </mxCell>
        <mxCell id="z4uphPHXU8BL8tabPtiP-49" value="Ville" style="ellipse;whiteSpace=wrap;html=1;aspect=fixed;" vertex="1" parent="1">
          <mxGeometry x="-600" y="895" width="60" height="60" as="geometry" />
        </mxCell>
        <mxCell id="z4uphPHXU8BL8tabPtiP-50" value="" style="endArrow=none;html=1;rounded=0;endFill=0;exitX=0.5;exitY=1;exitDx=0;exitDy=0;entryX=0;entryY=0.5;entryDx=0;entryDy=0;edgeStyle=orthogonalEdgeStyle;" edge="1" parent="1" source="z4uphPHXU8BL8tabPtiP-44" target="z4uphPHXU8BL8tabPtiP-49">
          <mxGeometry relative="1" as="geometry">
            <mxPoint x="-390" y="865" as="sourcePoint" />
            <mxPoint x="-230" y="865" as="targetPoint" />
          </mxGeometry>
        </mxCell>
        <mxCell id="z4uphPHXU8BL8tabPtiP-51" value="NodeGroup" style="text;html=1;align=center;verticalAlign=middle;whiteSpace=wrap;rounded=0;" vertex="1" parent="1">
          <mxGeometry x="-480" y="785" width="60" height="30" as="geometry" />
        </mxCell>
        <mxCell id="z4uphPHXU8BL8tabPtiP-54" style="edgeStyle=orthogonalEdgeStyle;rounded=0;orthogonalLoop=1;jettySize=auto;html=1;entryX=0;entryY=0.5;entryDx=0;entryDy=0;entryPerimeter=0;endArrow=none;endFill=0;" edge="1" parent="1" source="z4uphPHXU8BL8tabPtiP-27" target="z4uphPHXU8BL8tabPtiP-36">
          <mxGeometry relative="1" as="geometry">
            <Array as="points">
              <mxPoint x="-685" y="780" />
            </Array>
          </mxGeometry>
        </mxCell>
      </root>
    </mxGraphModel>
  </diagram>
</mxfile>
